LibreCaslonDisplay-Regular.ufo
<glyph name="s" format="1">
  <advance width="344"/>
  <unicode hex="0073"/>
  <outline>
    <contour>
      <point x="195" y="434" type="curve" smooth="yes"/>
      <point x="228" y="434"/>
      <point x="264" y="428"/>
      <point x="285" y="420" type="curve"/>
      <point x="285" y="309" type="line"/>
      <point x="274" y="309" type="line"/>
      <point x="256" y="389"/>
      <point x="229" y="423"/>
      <point x="181" y="423" type="curve" smooth="yes"/>
      <point x="137" y="423"/>
      <point x="108" y="394"/>
      <point x="108" y="348" type="curve" smooth="yes"/>
      <point x="108" y="228"/>
      <point x="302" y="272"/>
      <point x="302" y="122" type="curve" smooth="yes"/>
      <point x="302" y="41"/>
      <point x="246" y="-10"/>
      <point x="158" y="-10" type="curve" smooth="yes"/>
      <point x="125" y="-10"/>
      <point x="81" y="-2"/>
      <point x="53" y="8" type="curve"/>
      <point x="48" y="138" type="line"/>
      <point x="60" y="138" type="line"/>
      <point x="74" y="45"/>
      <point x="107" y="1"/>
      <point x="162" y="1" type="curve" smooth="yes"/>
      <point x="211" y="1"/>
      <point x="243" y="35"/>
      <point x="243" y="86" type="curve" smooth="yes" name="hr01"/>
      <point x="243" y="212"/>
      <point x="48" y="171"/>
      <point x="48" y="316" type="curve" smooth="yes"/>
      <point x="48" y="391"/>
      <point x="101" y="434"/>
    </contour>
    <contour>
      <point x="170" y="530" type="move" name="top"/>
    </contour>
    <contour>
      <point x="165" y="0" type="move" name="bottom"/>
    </contour>
  </outline>
</glyph>
<glyph name="uni00AD" format="1">
  <advance width="627"/>
  <unicode hex="00AD"/>
  <outline>
    <contour>
      <point x="127" y="419" type="line"/>
      <point x="514" y="419" type="line"/>
      <point x="502" y="380" type="line"/>
      <point x="114" y="380" type="line"/>
    </contour>
  </outline>
</glyph>
<glyph name="AE" format="1">
  <advance width="1498"/>
  <unicode hex="00C6"/>
  <outline>
    <contour>
      <point x="306" y="14" type="line"/>
      <point x="303" y="0" type="line"/>
      <point x="-70" y="0" type="line"/>
      <point x="-67" y="14" type="line"/>
      <point x="33" y="23" type="line" smooth="yes"/>
      <point x="93" y="28"/>
      <point x="113" y="40"/>
      <point x="144" y="93" type="curve" smooth="yes"/>
      <point x="794" y="1200" type="line"/>
      <point x="825" y="1200" type="line"/>
      <point x="737" y="1047" type="line"/>
      <point x="730" y="1047" type="line"/>
      <point x="172" y="93" type="line" smooth="yes"/>
      <point x="160" y="74"/>
      <point x="157" y="62"/>
      <point x="157" y="51" type="curve" smooth="yes"/>
      <point x="157" y="32"/>
      <point x="171" y="26"/>
      <point x="201" y="23" type="curve" smooth="yes"/>
    </contour>
    <contour>
      <point x="394" y="510" type="line"/>
      <point x="864" y="510" type="line"/>
      <point x="859" y="482" type="line"/>
      <point x="389" y="482" type="line"/>
    </contour>
    <contour>
      <point x="873" y="1193" type="line"/>
      <point x="873" y="21" type="line"/>
      <point x="1162" y="21" type="line" smooth="yes"/>
      <point x="1218" y="21"/>
      <point x="1237" y="33"/>
      <point x="1258" y="86" type="curve" smooth="yes"/>
      <point x="1375" y="371" type="line"/>
      <point x="1394" y="370" type="line"/>
      <point x="1350" y="0" type="line"/>
      <point x="593" y="0" type="line"/>
      <point x="593" y="14" type="line"/>
      <point x="737" y="28" type="line"/>
      <point x="737" y="1186" type="line"/>
      <point x="593" y="1200" type="line"/>
      <point x="593" y="1214" type="line"/>
      <point x="1352" y="1214" type="line"/>
      <point x="1376" y="884" type="line"/>
      <point x="1359" y="882" type="line"/>
      <point x="1260" y="1128" type="line" smooth="yes"/>
      <point x="1239" y="1181"/>
      <point x="1221" y="1193"/>
      <point x="1165" y="1193" type="curve" smooth="yes"/>
    </contour>
    <contour>
      <point x="1030" y="653" type="line" smooth="yes"/>
      <point x="1086" y="653"/>
      <point x="1104" y="667"/>
      <point x="1114" y="722" type="curve" smooth="yes"/>
      <point x="1144" y="864" type="line"/>
      <point x="1165" y="864" type="line"/>
      <point x="1165" y="414" type="line"/>
      <point x="1144" y="414" type="line"/>
      <point x="1114" y="556" type="line" smooth="yes"/>
      <point x="1104" y="611"/>
      <point x="1086" y="625"/>
      <point x="1030" y="625" type="curve" smooth="yes"/>
      <point x="859" y="625" type="line"/>
      <point x="859" y="653" type="line"/>
    </contour>
  </outline>
</glyph>
<glyph name="Eth" format="1">
  <advance width="1258"/>
  <unicode hex="00D0"/>
  <outline>
    <contour>
      <point x="90" y="639" type="line"/>
      <point x="590" y="639" type="line"/>
      <point x="590" y="600" type="line"/>
      <point x="90" y="600" type="line"/>
    </contour>
    <component base="D" xOffset="19"/>
  </outline>
</glyph>
<glyph name="Oslash" format="1">
  <advance width="1292"/>
  <unicode hex="00D8"/>
  <outline>
    <contour>
      <point x="1028" y="1320" type="line"/>
      <point x="289" y="-132" type="line"/>
      <point x="248" y="-132" type="line"/>
      <point x="987" y="1320" type="line"/>
    </contour>
    <contour>
      <point x="646" y="1243" type="curve" smooth="yes"/>
      <point x="957" y="1243"/>
      <point x="1200" y="964"/>
      <point x="1200" y="607" type="curve" smooth="yes"/>
      <point x="1200" y="250"/>
      <point x="957" y="-28"/>
      <point x="646" y="-28" type="curve" smooth="yes"/>
      <point x="334" y="-28"/>
      <point x="92" y="250"/>
      <point x="92" y="607" type="curve" smooth="yes"/>
      <point x="92" y="964"/>
      <point x="334" y="1243"/>
    </contour>
    <contour>
      <point x="260" y="607" type="curve" smooth="yes"/>
      <point x="260" y="216"/>
      <point x="400" y="-5"/>
      <point x="646" y="-5" type="curve" smooth="yes"/>
      <point x="892" y="-5"/>
      <point x="1031" y="216"/>
      <point x="1031" y="607" type="curve" smooth="yes"/>
      <point x="1031" y="1000"/>
      <point x="892" y="1221"/>
      <point x="646" y="1221" type="curve" smooth="yes"/>
      <point x="400" y="1221"/>
      <point x="260" y="1000"/>
    </contour>
  </outline>
</glyph>
<glyph name="Thorn" format="1">
  <advance width="1005"/>
  <unicode hex="00DE"/>
  <outline>
    <contour>
      <point x="290" y="966" type="line"/>
      <point x="516" y="966" type="line" smooth="yes"/>
      <point x="792" y="966"/>
      <point x="942" y="843"/>
      <point x="942" y="630" type="curve" smooth="yes"/>
      <point x="942" y="401"/>
      <point x="792" y="280"/>
      <point x="516" y="280" type="curve" smooth="yes"/>
      <point x="290" y="280" type="line"/>
      <point x="290" y="301" type="line"/>
      <point x="510" y="301" type="line" smooth="yes"/>
      <point x="700" y="301"/>
      <point x="783" y="405"/>
      <point x="783" y="639" type="curve" smooth="yes"/>
      <point x="783" y="811"/>
      <point x="732" y="945"/>
      <point x="510" y="945" type="curve" smooth="yes"/>
      <point x="290" y="945" type="line"/>
    </contour>
    <contour>
      <point x="215" y="28" type="line"/>
      <point x="215" y="1186" type="line"/>
      <point x="70" y="1200" type="line"/>
      <point x="70" y="1214" type="line"/>
      <point x="523" y="1214" type="line"/>
      <point x="523" y="1200" type="line"/>
      <point x="350" y="1186" type="line"/>
      <point x="350" y="28" type="line"/>
      <point x="523" y="14" type="line"/>
      <point x="523" y="0" type="line"/>
      <point x="70" y="0" type="line"/>
      <point x="70" y="14" type="line"/>
    </contour>
  </outline>
</glyph>
<glyph name="Aogonek" format="1">
  <advance width="1149"/>
  <unicode hex="0104"/>
  <outline>
    <contour>
      <point x="1102" y="-313" type="line"/>
      <point x="1052" y="-371"/>
      <point x="998" y="-398"/>
      <point x="929" y="-398" type="curve" smooth="yes"/>
      <point x="832" y="-398"/>
      <point x="771" y="-345"/>
      <point x="771" y="-262" type="curve" smooth="yes"/>
      <point x="771" y="-174"/>
      <point x="845" y="-74"/>
      <point x="972" y="16" type="curve"/>
      <point x="993" y="16" type="line"/>
      <point x="935" y="-40"/>
      <point x="878" y="-153"/>
      <point x="878" y="-232" type="curve" smooth="yes"/>
      <point x="878" y="-308"/>
      <point x="920" y="-348"/>
      <point x="987" y="-348" type="curve" smooth="yes"/>
      <point x="1028" y="-348"/>
      <point x="1063" y="-336"/>
      <point x="1096" y="-304" type="curve"/>
    </contour>
    <component base="A" xOffset="-5"/>
  </outline>
</glyph>
<glyph name="Hbar" format="1">
  <advance width="1311"/>
  <unicode hex="0126"/>
  <outline>
    <contour>
      <point x="83" y="935" type="line"/>
      <point x="1227" y="935" type="line"/>
      <point x="1227" y="905" type="line"/>
      <point x="83" y="905" type="line"/>
    </contour>
    <component base="H" xOffset="11"/>
  </outline>
</glyph>
<glyph name="Lslash" format="1">
  <advance width="1026"/>
  <unicode hex="0141"/>
  <outline>
    <contour>
      <point x="556" y="725" type="line"/>
      <point x="70" y="445" type="line"/>
      <point x="70" y="477" type="line"/>
      <point x="556" y="759" type="line"/>
    </contour>
    <component base="L"/>
  </outline>
</glyph>
<glyph name="Eng" format="1">
  <advance width="1292"/>
  <unicode hex="014A"/>
  <outline>
    <contour>
      <point x="76" y="1200" type="line"/>
      <point x="76" y="1214" type="line"/>
      <point x="338" y="1214" type="line"/>
      <point x="1031" y="243" type="line"/>
      <point x="1038" y="243" type="line"/>
      <point x="1038" y="1107" type="line" smooth="yes"/>
      <point x="1038" y="1165"/>
      <point x="1026" y="1183"/>
      <point x="986" y="1186" type="curve" smooth="yes"/>
      <point x="843" y="1200" type="line"/>
      <point x="843" y="1214" type="line"/>
      <point x="1264" y="1214" type="line"/>
      <point x="1264" y="1200" type="line"/>
      <point x="1137" y="1186" type="line" smooth="yes"/>
      <point x="1081" y="1179"/>
      <point x="1067" y="1163"/>
      <point x="1067" y="1107" type="curve" smooth="yes"/>
      <point x="1067" y="-25" type="line" smooth="yes"/>
      <point x="1067" y="-313"/>
      <point x="1010" y="-433"/>
      <point x="873" y="-433" type="curve" smooth="yes"/>
      <point x="773" y="-433"/>
      <point x="692" y="-370"/>
      <point x="692" y="-290" type="curve" smooth="yes"/>
      <point x="692" y="-243"/>
      <point x="720" y="-213"/>
      <point x="766" y="-213" type="curve" smooth="yes"/>
      <point x="811" y="-213"/>
      <point x="840" y="-243"/>
      <point x="840" y="-292" type="curve" smooth="yes"/>
      <point x="840" y="-304"/>
      <point x="838" y="-331"/>
      <point x="838" y="-343" type="curve" smooth="yes"/>
      <point x="838" y="-384"/>
      <point x="859" y="-405"/>
      <point x="896" y="-405" type="curve" smooth="yes"/>
      <point x="987" y="-405"/>
      <point x="1038" y="-283"/>
      <point x="1038" y="-70" type="curve" smooth="yes"/>
      <point x="1038" y="-5" type="line"/>
      <point x="259" y="1093" type="line"/>
      <point x="252" y="1093" type="line"/>
      <point x="252" y="107" type="line" smooth="yes"/>
      <point x="252" y="49"/>
      <point x="264" y="32"/>
      <point x="304" y="28" type="curve" smooth="yes"/>
      <point x="429" y="14" type="line"/>
      <point x="429" y="0" type="line"/>
      <point x="44" y="0" type="line"/>
      <point x="44" y="14" type="line"/>
      <point x="171" y="28" type="line" smooth="yes"/>
      <point x="211" y="32"/>
      <point x="224" y="49"/>
      <point x="224" y="107" type="curve" smooth="yes"/>
      <point x="224" y="1132" type="line"/>
      <point x="216" y="1142" type="line" smooth="yes"/>
      <point x="185" y="1188"/>
      <point x="162" y="1200"/>
      <point x="106" y="1200" type="curve" smooth="yes"/>
    </contour>
  </outline>
</glyph>
<glyph name="OE" format="1">
  <advance width="1734"/>
  <unicode hex="0152"/>
  <outline>
    <contour>
      <point x="646" y="1243" type="curve" smooth="yes"/>
      <point x="334" y="1243"/>
      <point x="92" y="964"/>
      <point x="92" y="607" type="curve" smooth="yes"/>
      <point x="92" y="250"/>
      <point x="334" y="-28"/>
      <point x="646" y="-28" type="curve" smooth="yes"/>
      <point x="725" y="-28"/>
      <point x="803" y="-18"/>
      <point x="871" y="0" type="curve"/>
      <point x="1588" y="0" type="line"/>
      <point x="1632" y="370" type="line"/>
      <point x="1612" y="371" type="line"/>
      <point x="1496" y="86" type="line" smooth="yes"/>
      <point x="1475" y="33"/>
      <point x="1456" y="21"/>
      <point x="1399" y="21" type="curve" smooth="yes"/>
      <point x="1005" y="21" type="line"/>
      <point x="1005" y="625" type="line"/>
      <point x="1265" y="625" type="line" smooth="yes"/>
      <point x="1322" y="625"/>
      <point x="1339" y="611"/>
      <point x="1350" y="556" type="curve" smooth="yes"/>
      <point x="1380" y="414" type="line"/>
      <point x="1401" y="414" type="line"/>
      <point x="1401" y="864" type="line"/>
      <point x="1380" y="864" type="line"/>
      <point x="1350" y="722" type="line" smooth="yes"/>
      <point x="1339" y="667"/>
      <point x="1322" y="653"/>
      <point x="1265" y="653" type="curve" smooth="yes"/>
      <point x="1005" y="653" type="line"/>
      <point x="1005" y="1193" type="line"/>
      <point x="1403" y="1193" type="line" smooth="yes"/>
      <point x="1459" y="1193"/>
      <point x="1477" y="1181"/>
      <point x="1498" y="1128" type="curve" smooth="yes"/>
      <point x="1596" y="882" type="line"/>
      <point x="1614" y="884" type="line"/>
      <point x="1589" y="1214" type="line"/>
      <point x="869" y="1214" type="line"/>
      <point x="811" y="1232"/>
      <point x="732" y="1243"/>
    </contour>
    <contour>
      <point x="260" y="607" type="curve" smooth="yes"/>
      <point x="260" y="1000"/>
      <point x="400" y="1221"/>
      <point x="646" y="1221" type="curve" smooth="yes"/>
      <point x="734" y="1221"/>
      <point x="810" y="1197"/>
      <point x="869" y="1142" type="curve"/>
      <point x="869" y="72" type="line"/>
      <point x="803" y="21"/>
      <point x="727" y="-5"/>
      <point x="646" y="-5" type="curve" smooth="yes"/>
      <point x="400" y="-5"/>
      <point x="260" y="216"/>
    </contour>
  </outline>
</glyph>
<glyph name="Tbar" format="1">
  <advance width="1167"/>
  <unicode hex="0166"/>
  <outline>
    <contour>
      <point x="268" y="736" type="line"/>
      <point x="884" y="736" type="line"/>
      <point x="884" y="706" type="line"/>
      <point x="268" y="706" type="line"/>
    </contour>
    <component base="T"/>
  </outline>
</glyph>
<glyph name="Schwa" format="1">
  <advance width="1148"/>
  <unicode hex="018F"/>
  <outline>
    <contour>
      <point x="86" y="435" type="line" name="hr00"/>
      <point x="92" y="130"/>
      <point x="229" y="-28"/>
      <point x="482" y="-28" type="curve" smooth="yes"/>
      <point x="824" y="-28"/>
      <point x="1052" y="231"/>
      <point x="1052" y="614" type="curve" smooth="yes"/>
      <point x="1052" y="987"/>
      <point x="847" y="1243"/>
      <point x="546" y="1243" type="curve" smooth="yes"/>
      <point x="338" y="1243"/>
      <point x="183" y="1128"/>
      <point x="109" y="928" type="curve" smooth="yes"/>
      <point x="97" y="896" type="line"/>
      <point x="106" y="892" type="line"/>
      <point x="130" y="926" type="line" smooth="yes"/>
      <point x="232" y="1063"/>
      <point x="354" y="1135"/>
      <point x="477" y="1135" type="curve" smooth="yes"/>
      <point x="734" y="1135"/>
      <point x="884" y="949"/>
      <point x="884" y="572" type="curve" smooth="yes"/>
      <point x="884" y="224"/>
      <point x="739" y="-5"/>
      <point x="514" y="-5" type="curve" smooth="yes"/>
      <point x="371" y="-5"/>
      <point x="264" y="56"/>
      <point x="264" y="292" type="curve" smooth="yes"/>
      <point x="264" y="334"/>
      <point x="266" y="382"/>
      <point x="273" y="405" type="curve"/>
      <point x="901" y="426" type="line"/>
      <point x="901" y="449" type="line"/>
      <point x="104" y="449" type="line"/>
    </contour>
  </outline>
</glyph>
<glyph name="Oogonek" format="1">
  <advance width="1292"/>
  <unicode hex="01EA"/>
  <outline>
    <contour>
      <point x="685" y="-9" type="line"/>
      <point x="563" y="-92"/>
      <point x="493" y="-181"/>
      <point x="493" y="-262" type="curve" smooth="yes"/>
      <point x="493" y="-345"/>
      <point x="554" y="-398"/>
      <point x="651" y="-398" type="curve" smooth="yes"/>
      <point x="720" y="-398"/>
      <point x="774" y="-371"/>
      <point x="824" y="-313" type="curve"/>
      <point x="818" y="-304" type="line"/>
      <point x="785" y="-336"/>
      <point x="750" y="-348"/>
      <point x="709" y="-348" type="curve" smooth="yes"/>
      <point x="642" y="-348"/>
      <point x="600" y="-308"/>
      <point x="600" y="-232" type="curve" smooth="yes"/>
      <point x="600" y="-164"/>
      <point x="648" y="-72"/>
      <point x="700" y="-16" type="curve"/>
    </contour>
    <component base="O"/>
  </outline>
</glyph>
<glyph name="Aringacute" format="1">
  <advance width="1160"/>
  <unicode hex="01FA"/>
  <outline>
    <contour>
      <point x="602" y="1427" type="line"/>
      <point x="672" y="1656" type="line" smooth="yes"/>
      <point x="681" y="1683"/>
      <point x="700" y="1693"/>
      <point x="727" y="1693" type="curve" smooth="yes"/>
      <point x="759" y="1693"/>
      <point x="776" y="1668"/>
      <point x="776" y="1639" type="curve" smooth="yes"/>
      <point x="776" y="1616"/>
      <point x="759" y="1600"/>
      <point x="713" y="1542" type="curve" smooth="yes"/>
      <point x="614" y="1419" type="line"/>
    </contour>
    <component base="A"/>
    <component base="ring" xOffset="398" yOffset="290"/>
  </outline>
</glyph>
<glyph name="Oslashacute" format="1">
  <advance width="1292"/>
  <unicode hex="01FE"/>
  <outline>
    <contour>
      <point x="989" y="1320" type="line"/>
      <point x="250" y="-132" type="line"/>
      <point x="290" y="-132" type="line"/>
      <point x="1030" y="1320" type="line"/>
    </contour>
    <component base="acute" xOffset="546" yOffset="475"/>
    <component base="O" xOffset="2"/>
  </outline>
</glyph>
<glyph name="uni02C9" format="1">
  <advance width="510"/>
  <unicode hex="02C9"/>
  <outline>
    <contour>
      <point x="79" y="1012" type="line"/>
      <point x="431" y="1012" type="line"/>
      <point x="431" y="973" type="line"/>
      <point x="79" y="973" type="line"/>
    </contour>
    <contour>
      <point x="255" y="933" type="move" name="_top"/>
    </contour>
  </outline>
</glyph>
<glyph name="uni03A9" format="1">
  <advance width="1456"/>
  <unicode hex="03A9"/>
  <outline>
    <contour>
      <point x="1383" y="257" type="line" name="hr00"/>
      <point x="1336" y="259" type="line"/>
      <point x="1292" y="134"/>
      <point x="1272" y="118"/>
      <point x="1190" y="118" type="curve" smooth="yes"/>
      <point x="972" y="118" type="line"/>
      <point x="1118" y="252"/>
      <point x="1301" y="436"/>
      <point x="1301" y="686" type="curve" smooth="yes"/>
      <point x="1301" y="1035"/>
      <point x="1065" y="1243"/>
      <point x="734" y="1243" type="curve" smooth="yes"/>
      <point x="412" y="1243"/>
      <point x="160" y="1019"/>
      <point x="160" y="671" type="curve" smooth="yes"/>
      <point x="160" y="382"/>
      <point x="359" y="216"/>
      <point x="484" y="118" type="curve"/>
      <point x="275" y="118" type="line" smooth="yes"/>
      <point x="195" y="118"/>
      <point x="167" y="141"/>
      <point x="125" y="259" type="curve"/>
      <point x="81" y="257" type="line"/>
      <point x="127" y="0" type="line"/>
      <point x="584" y="0" type="line"/>
      <point x="598" y="37" type="line"/>
      <point x="488" y="195"/>
      <point x="341" y="398"/>
      <point x="341" y="656" type="curve" smooth="yes"/>
      <point x="341" y="1042"/>
      <point x="516" y="1188"/>
      <point x="730" y="1188" type="curve" smooth="yes"/>
      <point x="926" y="1188"/>
      <point x="1123" y="1054"/>
      <point x="1123" y="667" type="curve" smooth="yes"/>
      <point x="1123" y="394"/>
      <point x="945" y="169"/>
      <point x="861" y="37" type="curve"/>
      <point x="873" y="0" type="line"/>
      <point x="1334" y="0" type="line"/>
    </contour>
  </outline>
</glyph>
<glyph name="uni03BC" format="1">
  <advance width="785"/>
  <unicode hex="03BC"/>
  <outline>
    <contour>
      <point x="535" y="718" type="line" name="hr00"/>
      <point x="535" y="123" type="line"/>
      <point x="539" y="113" type="line"/>
      <point x="544" y="111" type="line"/>
      <point x="544" y="-9" type="line"/>
      <point x="554" y="-9" type="line"/>
      <point x="746" y="79" type="line"/>
      <point x="746" y="88" type="line"/>
      <point x="649" y="109" type="line"/>
      <point x="649" y="746" type="line"/>
      <point x="429" y="746" type="line"/>
      <point x="429" y="732" type="line"/>
    </contour>
    <contour>
      <point x="165" y="90" type="line"/>
      <point x="192" y="21"/>
      <point x="243" y="-18"/>
      <point x="317" y="-18" type="curve" smooth="yes"/>
      <point x="396" y="-18"/>
      <point x="470" y="26"/>
      <point x="539" y="113" type="curve"/>
      <point x="539" y="141" type="line"/>
      <point x="495" y="81"/>
      <point x="436" y="49"/>
      <point x="377" y="49" type="curve" smooth="yes"/>
      <point x="326" y="49"/>
      <point x="289" y="70"/>
      <point x="269" y="111" type="curve" smooth="yes"/>
      <point x="255" y="139"/>
      <point x="252" y="172"/>
      <point x="252" y="269" type="curve" smooth="yes"/>
      <point x="252" y="746" type="line"/>
      <point x="32" y="746" type="line"/>
      <point x="32" y="732" type="line"/>
      <point x="137" y="718" type="line"/>
      <point x="137" y="269" type="line" smooth="yes"/>
      <point x="137" y="65"/>
      <point x="111" y="-202"/>
      <point x="111" y="-285" type="curve" smooth="yes"/>
      <point x="111" y="-352"/>
      <point x="125" y="-380"/>
      <point x="160" y="-380" type="curve" smooth="yes"/>
      <point x="194" y="-380"/>
      <point x="213" y="-356"/>
      <point x="213" y="-317" type="curve" smooth="yes"/>
      <point x="213" y="-257"/>
      <point x="157" y="-176"/>
      <point x="157" y="86" type="curve"/>
    </contour>
  </outline>
</glyph>
<glyph name="uni20A6" format="1">
  <advance width="1376"/>
  <unicode hex="20A6"/>
  <outline>
    <contour>
      <point x="123" y="1200" type="line"/>
      <point x="123" y="1214" type="line"/>
      <point x="385" y="1214" type="line"/>
      <point x="1079" y="243" type="line"/>
      <point x="1114" y="243" type="line"/>
      <point x="1114" y="-28" type="line"/>
      <point x="1096" y="-28" type="line"/>
      <point x="306" y="1093" type="line"/>
      <point x="290" y="1093" type="line"/>
      <point x="282" y="1118" type="line"/>
      <point x="264" y="1142" type="line" smooth="yes"/>
      <point x="232" y="1188"/>
      <point x="209" y="1200"/>
      <point x="153" y="1200" type="curve" smooth="yes"/>
    </contour>
    <contour>
      <point x="1086" y="120" type="line"/>
      <point x="1086" y="1107" type="line" smooth="yes"/>
      <point x="1086" y="1163"/>
      <point x="1075" y="1183"/>
      <point x="1033" y="1186" type="curve" smooth="yes"/>
      <point x="891" y="1200" type="line"/>
      <point x="891" y="1214" type="line"/>
      <point x="1311" y="1214" type="line"/>
      <point x="1311" y="1200" type="line"/>
      <point x="1184" y="1186" type="line" smooth="yes"/>
      <point x="1128" y="1179"/>
      <point x="1114" y="1163"/>
      <point x="1114" y="1107" type="curve" smooth="yes"/>
      <point x="1114" y="120" type="line"/>
    </contour>
    <contour>
      <point x="299" y="1169" type="line"/>
      <point x="299" y="107" type="line" smooth="yes"/>
      <point x="299" y="51"/>
      <point x="310" y="33"/>
      <point x="352" y="28" type="curve" smooth="yes"/>
      <point x="477" y="14" type="line"/>
      <point x="477" y="0" type="line"/>
      <point x="92" y="0" type="line"/>
      <point x="92" y="14" type="line"/>
      <point x="218" y="28" type="line" smooth="yes"/>
      <point x="260" y="33"/>
      <point x="271" y="51"/>
      <point x="271" y="107" type="curve" smooth="yes"/>
      <point x="271" y="1165" type="line"/>
    </contour>
    <contour>
      <point x="118" y="744" type="line"/>
      <point x="127" y="783" type="line"/>
      <point x="1267" y="783" type="line"/>
      <point x="1258" y="744" type="line"/>
    </contour>
    <contour>
      <point x="118" y="539" type="line"/>
      <point x="127" y="577" type="line"/>
      <point x="1267" y="577" type="line"/>
      <point x="1258" y="539" type="line"/>
    </contour>
  </outline>
</glyph>
<glyph name="uni20A9" format="1">
  <advance width="1857"/>
  <unicode hex="20A9"/>
  <outline>
    <contour>
      <point x="966" y="994" type="line"/>
      <point x="655" y="-28" type="line"/>
      <point x="627" y="-28" type="line"/>
      <point x="199" y="1186" type="line"/>
      <point x="55" y="1200" type="line"/>
      <point x="55" y="1214" type="line"/>
      <point x="495" y="1214" type="line"/>
      <point x="495" y="1200" type="line"/>
      <point x="341" y="1186" type="line"/>
      <point x="688" y="197" type="line"/>
      <point x="695" y="197" type="line"/>
      <point x="938" y="994" type="line"/>
    </contour>
    <contour>
      <point x="1427" y="1200" type="line"/>
      <point x="1427" y="1214" type="line"/>
      <point x="1802" y="1214" type="line"/>
      <point x="1802" y="1200" type="line"/>
      <point x="1704" y="1192" type="line" smooth="yes"/>
      <point x="1640" y="1186"/>
      <point x="1624" y="1174"/>
      <point x="1609" y="1121" type="curve" smooth="yes"/>
      <point x="1258" y="-28" type="line"/>
      <point x="1230" y="-28" type="line"/>
      <point x="803" y="1186" type="line"/>
      <point x="658" y="1200" type="line"/>
      <point x="658" y="1214" type="line"/>
      <point x="1098" y="1214" type="line"/>
      <point x="1098" y="1200" type="line"/>
      <point x="945" y="1186" type="line"/>
      <point x="1292" y="197" type="line"/>
      <point x="1299" y="197" type="line"/>
      <point x="1580" y="1121" type="line" smooth="yes"/>
      <point x="1584" y="1133"/>
      <point x="1586" y="1144"/>
      <point x="1586" y="1155" type="curve" smooth="yes"/>
      <point x="1586" y="1179"/>
      <point x="1575" y="1188"/>
      <point x="1535" y="1192" type="curve" smooth="yes"/>
    </contour>
    <contour>
      <point x="222" y="639" type="line"/>
      <point x="231" y="678" type="line"/>
      <point x="1635" y="678" type="line"/>
      <point x="1626" y="639" type="line"/>
    </contour>
    <contour>
      <point x="222" y="433" type="line"/>
      <point x="231" y="472" type="line"/>
      <point x="1635" y="472" type="line"/>
      <point x="1626" y="433" type="line"/>
    </contour>
  </outline>
</glyph>
<glyph name="Euro" format="1">
  <advance width="1012"/>
  <unicode hex="20AC"/>
  <outline>
    <contour>
      <point x="725" y="700" type="line"/>
      <point x="734" y="739" type="line"/>
      <point x="99" y="739" type="line"/>
      <point x="90" y="700" type="line"/>
    </contour>
    <contour>
      <point x="693" y="495" type="line"/>
      <point x="702" y="533" type="line"/>
      <point x="67" y="533" type="line"/>
      <point x="58" y="495" type="line"/>
    </contour>
    <contour>
      <point x="630" y="1221" type="curve" smooth="yes"/>
      <point x="704" y="1221"/>
      <point x="739" y="1186"/>
      <point x="773" y="1068" type="curve" smooth="yes"/>
      <point x="785" y="1021"/>
      <point x="806" y="1000"/>
      <point x="841" y="1000" type="curve" smooth="yes"/>
      <point x="880" y="1000"/>
      <point x="908" y="1028"/>
      <point x="908" y="1068" type="curve" smooth="yes"/>
      <point x="908" y="1158"/>
      <point x="780" y="1243"/>
      <point x="644" y="1243" type="curve" smooth="yes"/>
      <point x="391" y="1243"/>
      <point x="194" y="966"/>
      <point x="194" y="609" type="curve" smooth="yes"/>
      <point x="194" y="255"/>
      <point x="391" y="-28"/>
      <point x="639" y="-28" type="curve" smooth="yes"/>
      <point x="773" y="-28"/>
      <point x="908" y="60"/>
      <point x="908" y="146" type="curve" smooth="yes"/>
      <point x="908" y="187"/>
      <point x="880" y="215"/>
      <point x="841" y="215" type="curve" smooth="yes"/>
      <point x="806" y="215"/>
      <point x="785" y="194"/>
      <point x="773" y="146" type="curve" smooth="yes"/>
      <point x="739" y="32"/>
      <point x="700" y="-7"/>
      <point x="625" y="-7" type="curve" smooth="yes"/>
      <point x="454" y="-7"/>
      <point x="363" y="208"/>
      <point x="363" y="605" type="curve" smooth="yes"/>
      <point x="363" y="1005"/>
      <point x="458" y="1221"/>
    </contour>
  </outline>
</glyph>
<glyph name="uni20B9" format="1">
  <advance width="1037"/>
  <unicode hex="20B9"/>
  <outline>
    <contour>
      <point x="151" y="577" type="line"/>
      <point x="521" y="577" type="line"/>
      <point x="843" y="74" type="line" smooth="yes"/>
      <point x="873" y="26"/>
      <point x="896" y="14"/>
      <point x="952" y="14" type="curve" smooth="yes"/>
      <point x="977" y="14" type="line"/>
      <point x="977" y="0" type="line"/>
      <point x="796" y="0" type="line" smooth="yes"/>
      <point x="739" y="0"/>
      <point x="718" y="12"/>
      <point x="688" y="60" type="curve" smooth="yes"/>
      <point x="419" y="495" type="line" smooth="yes"/>
      <point x="385" y="547"/>
      <point x="377" y="554"/>
      <point x="319" y="554" type="curve" smooth="yes"/>
      <point x="151" y="554" type="line"/>
    </contour>
    <contour>
      <point x="128" y="1214" type="line"/>
      <point x="354" y="1214" type="line" smooth="yes"/>
      <point x="630" y="1214"/>
      <point x="780" y="1100"/>
      <point x="780" y="889" type="curve" smooth="yes"/>
      <point x="780" y="678"/>
      <point x="628" y="560"/>
      <point x="354" y="560" type="curve" smooth="yes"/>
      <point x="128" y="560" type="line"/>
      <point x="128" y="581" type="line"/>
      <point x="348" y="581" type="line" smooth="yes"/>
      <point x="537" y="581"/>
      <point x="625" y="679"/>
      <point x="625" y="885" type="curve" smooth="yes"/>
      <point x="625" y="1093"/>
      <point x="535" y="1193"/>
      <point x="348" y="1193" type="curve" smooth="yes"/>
      <point x="128" y="1193" type="line"/>
    </contour>
    <contour>
      <point x="118" y="1176" type="line"/>
      <point x="127" y="1214" type="line"/>
      <point x="903" y="1214" type="line"/>
      <point x="894" y="1176" type="line"/>
    </contour>
    <contour>
      <point x="118" y="970" type="line"/>
      <point x="127" y="1008" type="line"/>
      <point x="903" y="1008" type="line"/>
      <point x="894" y="970" type="line"/>
    </contour>
  </outline>
</glyph>
<glyph name="uni20BA" format="1">
  <advance width="956"/>
  <unicode hex="20BA"/>
  <outline>
    <contour>
      <point x="407" y="1186" type="line"/>
      <point x="551" y="1200" type="line"/>
      <point x="551" y="1214" type="line"/>
      <point x="127" y="1214" type="line"/>
      <point x="127" y="1200" type="line"/>
      <point x="271" y="1186" type="line"/>
      <point x="271" y="28" type="line"/>
      <point x="127" y="14" type="line"/>
      <point x="127" y="0" type="line"/>
      <point x="407" y="0" type="line" smooth="yes"/>
      <point x="547" y="0"/>
      <point x="688" y="74"/>
      <point x="790" y="199" type="curve" smooth="yes"/>
      <point x="855" y="278"/>
      <point x="894" y="368"/>
      <point x="894" y="442" type="curve" smooth="yes"/>
      <point x="894" y="502"/>
      <point x="868" y="539"/>
      <point x="822" y="539" type="curve" smooth="yes"/>
      <point x="773" y="539"/>
      <point x="753" y="498"/>
      <point x="734" y="375" type="curve" smooth="yes"/>
      <point x="697" y="139"/>
      <point x="591" y="28"/>
      <point x="407" y="28" type="curve"/>
    </contour>
    <contour>
      <point x="590" y="973" type="line"/>
      <point x="97" y="618" type="line"/>
      <point x="118" y="588" type="line"/>
      <point x="611" y="945" type="line"/>
    </contour>
    <contour>
      <point x="590" y="803" type="line"/>
      <point x="97" y="445" type="line"/>
      <point x="118" y="417" type="line"/>
      <point x="612" y="774" type="line"/>
    </contour>
  </outline>
</glyph>
<glyph name="Delta" format="1">
  <advance width="1197"/>
  <unicode hex="2206"/>
  <outline>
    <contour>
      <point x="1142" y="0" type="line" name="hr00"/>
      <point x="1142" y="42" type="line"/>
      <point x="628" y="1243" type="line"/>
      <point x="554" y="1221" type="line"/>
      <point x="55" y="42" type="line"/>
      <point x="55" y="0" type="line"/>
    </contour>
    <contour>
      <point x="947" y="83" type="line"/>
      <point x="155" y="83" type="line"/>
      <point x="547" y="1038" type="line"/>
    </contour>
  </outline>
</glyph>
<glyph name="c_p" format="1">
  <advance width="869"/>
  <outline>
    <contour>
      <point x="238" y="434" type="curve"/>
      <point x="242" y="434" type="line"/>
      <point x="217" y="450"/>
      <point x="203" y="477"/>
      <point x="203" y="512" type="curve" smooth="yes"/>
      <point x="203" y="581"/>
      <point x="276" y="637"/>
      <point x="367" y="637" type="curve" smooth="yes"/>
      <point x="477" y="637"/>
      <point x="538" y="559"/>
      <point x="538" y="419" type="curve" smooth="yes"/>
      <point x="538" y="363" type="line"/>
      <point x="542" y="363" type="line"/>
      <point x="570" y="407"/>
      <point x="619" y="434"/>
      <point x="671" y="434" type="curve" smooth="yes"/>
      <point x="762" y="434"/>
      <point x="828" y="346"/>
      <point x="828" y="225" type="curve" smooth="yes" name="hr01"/>
      <point x="828" y="87"/>
      <point x="743" y="-10"/>
      <point x="623" y="-10" type="curve" smooth="yes"/>
      <point x="594" y="-10"/>
      <point x="568" y="-4"/>
      <point x="541" y="8" type="curve"/>
      <point x="541" y="-216" type="line"/>
      <point x="631" y="-227" type="line"/>
      <point x="631" y="-234" type="line"/>
      <point x="415" y="-234" type="line"/>
      <point x="415" y="-226" type="line"/>
      <point x="476" y="-218" type="line" name="hr02"/>
      <point x="476" y="487" type="line" smooth="yes"/>
      <point x="476" y="581"/>
      <point x="439" y="627"/>
      <point x="364" y="627" type="curve" smooth="yes"/>
      <point x="287" y="627"/>
      <point x="233" y="579"/>
      <point x="233" y="509" type="curve" smooth="yes" name="hr03"/>
      <point x="233" y="467"/>
      <point x="248" y="437"/>
      <point x="274" y="431" type="curve" smooth="yes"/>
      <point x="330" y="418"/>
      <point x="371" y="387"/>
      <point x="371" y="347" type="curve" smooth="yes"/>
      <point x="371" y="324"/>
      <point x="357" y="309"/>
      <point x="334" y="309" type="curve" smooth="yes"/>
      <point x="270" y="309"/>
      <point x="318" y="424"/>
      <point x="234" y="424" type="curve" smooth="yes"/>
      <point x="161" y="424"/>
      <point x="107" y="339"/>
      <point x="107" y="222" type="curve" smooth="yes"/>
      <point x="107" y="106"/>
      <point x="159" y="39"/>
      <point x="249" y="39" type="curve" smooth="yes"/>
      <point x="298" y="39"/>
      <point x="338" y="60"/>
      <point x="370" y="102" type="curve" smooth="yes"/>
      <point x="379" y="114" type="line"/>
      <point x="383" y="112" type="line"/>
      <point x="379" y="101" type="line" smooth="yes" name="hr04"/>
      <point x="353" y="31"/>
      <point x="295" y="-10"/>
      <point x="223" y="-10" type="curve" smooth="yes"/>
      <point x="116" y="-10"/>
      <point x="40" y="80"/>
      <point x="40" y="207" type="curve" smooth="yes"/>
      <point x="40" y="339"/>
      <point x="122" y="434"/>
    </contour>
    <contour>
      <point x="628" y="0" type="curve" smooth="yes"/>
      <point x="703" y="0"/>
      <point x="755" y="86"/>
      <point x="755" y="210" type="curve" smooth="yes"/>
      <point x="755" y="328"/>
      <point x="707" y="404"/>
      <point x="633" y="404" type="curve" smooth="yes" name="hr05"/>
      <point x="591" y="404"/>
      <point x="556" y="381"/>
      <point x="541" y="344" type="curve"/>
      <point x="541" y="71" type="line" smooth="yes" name="hr06"/>
      <point x="541" y="33"/>
      <point x="582" y="0"/>
    </contour>
  </outline>
</glyph>
